<svg width="24" height="24" viewBox="0 0 24 24" fill="none" xmlns="http://www.w3.org/2000/svg">
<path d="M5.14379 19.8842C5.02962 19.8471 4.93062 19.7481 4.73261 19.5501L4.44977 19.2673C4.25176 19.0693 4.15275 18.9703 4.11566 18.8561C4.08303 18.7557 4.08303 18.6475 4.11566 18.5471C4.15275 18.4329 4.25176 18.3339 4.44977 18.1359L10.5858 11.9999L4.44983 5.86395C4.25183 5.66594 4.15282 5.56693 4.11572 5.45277C4.08309 5.35235 4.08309 5.24417 4.11572 5.14375C4.15282 5.02959 4.25182 4.93058 4.44983 4.73258L4.73267 4.44973C4.93068 4.25172 5.02969 4.15272 5.14385 4.11563C5.24427 4.083 5.35245 4.083 5.45287 4.11563C5.56703 4.15272 5.66604 4.25172 5.86404 4.44973L12 10.5857L18.1358 4.44983C18.3338 4.25183 18.4329 4.15281 18.547 4.11572C18.6474 4.08309 18.7556 4.08309 18.856 4.11572C18.9702 4.15281 19.0692 4.25182 19.2672 4.44983L19.5501 4.73267C19.7481 4.93068 19.8471 5.02968 19.8842 5.14385C19.9168 5.24427 19.9168 5.35244 19.8842 5.45286C19.8471 5.56703 19.7481 5.66603 19.5501 5.86404L13.4142 11.9999L19.5501 18.1358C19.7481 18.3338 19.8471 18.4328 19.8842 18.547C19.9168 18.6474 19.9168 18.7556 19.8842 18.856C19.8471 18.9702 19.7481 19.0692 19.5501 19.2672L19.2673 19.55C19.0693 19.748 18.9703 19.847 18.8561 19.8841C18.7557 19.9168 18.6475 19.9168 18.5471 19.8841C18.4329 19.847 18.3339 19.748 18.1359 19.55L12 13.4141L5.86398 19.5501C5.66597 19.7481 5.56697 19.8471 5.4528 19.8842C5.35238 19.9168 5.24421 19.9168 5.14379 19.8842Z" fill="white"/>
</svg>
