<svg width="26" height="26" viewBox="0 0 26 26" fill="none" xmlns="http://www.w3.org/2000/svg">
<path fill-rule="evenodd" clip-rule="evenodd" d="M18.9583 8.12499C18.9583 11.4157 16.2907 14.0833 13 14.0833C9.70928 14.0833 7.04165 11.4157 7.04165 8.12499C7.04165 4.83429 9.70928 2.16666 13 2.16666C16.2907 2.16666 18.9583 4.83429 18.9583 8.12499ZM16.7916 8.12499C16.7916 10.2191 15.0941 11.9167 13 11.9167C10.9059 11.9167 9.20831 10.2191 9.20831 8.12499C9.20831 6.03091 10.9059 4.33332 13 4.33332C15.0941 4.33332 16.7916 6.03091 16.7916 8.12499Z" fill="white"/>
<path fill-rule="evenodd" clip-rule="evenodd" d="M4.33331 22.8137C4.33331 18.5904 7.75702 15.1667 11.9804 15.1667H14.0196C18.2429 15.1667 21.6666 18.5904 21.6666 22.8137C21.6666 23.3768 21.2102 23.8333 20.647 23.8333H5.35292C4.78981 23.8333 4.33331 23.3768 4.33331 22.8137ZM6.62021 21.6667C7.14751 19.1906 9.34705 17.3333 11.9804 17.3333H14.0196C16.6529 17.3333 18.8525 19.1906 19.3797 21.6667H6.62021Z" fill="white"/>
</svg>
