<svg width="25" height="25" viewBox="0 0 25 25" fill="none" xmlns="http://www.w3.org/2000/svg">
<path d="M8.28537 10.6506C7.23821 11.672 7.23821 13.328 8.28537 14.3494L14.6232 20.5311C14.8887 20.79 15.0214 20.9195 15.1745 20.968C15.3091 21.0107 15.4541 21.0107 15.5888 20.968C15.7418 20.9195 15.8746 20.79 16.14 20.5311L16.5192 20.1612C16.7847 19.9023 16.9175 19.7728 16.9672 19.6235C17.0109 19.4922 17.0109 19.3507 16.9672 19.2194C16.9175 19.0701 16.7847 18.9407 16.5192 18.6817L10.9398 13.2397C10.6744 12.9808 10.5416 12.8513 10.4919 12.702C10.4482 12.5707 10.4482 12.4293 10.4919 12.298C10.5416 12.1487 10.6744 12.0192 10.9398 11.7603L16.5193 6.31827C16.7847 6.05933 16.9175 5.92987 16.9672 5.78057C17.0109 5.64925 17.0109 5.5078 16.9672 5.37647C16.9175 5.22718 16.7847 5.09772 16.5193 4.83878L16.14 4.46891C15.8746 4.20998 15.7418 4.08051 15.5888 4.032C15.4541 3.98933 15.3091 3.98933 15.1745 4.032C15.0214 4.08051 14.8887 4.20998 14.6232 4.46891L8.28537 10.6506Z" fill="white"/>
</svg>
