<svg width="13" height="12" viewBox="0 0 13 12" fill="none" xmlns="http://www.w3.org/2000/svg">
<rect x="0.986328" width="12" height="12" rx="1.03597" fill="#7559FF"/>
<path d="M3.12976 4.06348H2.58984V7.67578H3.12976V4.06348ZM5.70598 4.06348H5.16606V7.67578H5.70598V4.06348Z" fill="white"/>
<path d="M4.89182 5.75427L3.63277 5.02886C3.54338 4.97735 3.43164 5.0418 3.43164 5.14482V6.59563C3.43164 6.69866 3.54338 6.7631 3.63277 6.71159L4.89182 5.98618C4.98121 5.93445 4.98121 5.80578 4.89182 5.75427Z" fill="black"/>
<path d="M9.93461 6.69492L10.2484 7.23724L9.29078 8.89209H8.66326L9.62085 7.23724L8.48828 5.27979H9.1158L9.93461 6.69492ZM11.3809 5.27979H10.7534L9.93461 6.69492H10.5621L11.3809 5.27979Z" fill="white"/>
<path d="M7.81847 7.07165C7.68528 7.18136 7.51432 7.24737 7.32794 7.24737C6.98647 7.24737 6.69662 7.02571 6.59539 6.71887H8.5823C8.59728 6.64082 8.6051 6.56054 8.6051 6.47803C8.6051 5.77426 8.03323 5.20361 7.32794 5.20361C6.96546 5.20361 6.63807 5.35436 6.40566 5.59631L6.67696 6.06549C6.81372 5.85097 7.05418 5.7087 7.32794 5.7087C7.66896 5.7087 7.95836 5.92969 8.06004 6.23608H6.0738C6.05883 6.31435 6.05078 6.3953 6.05078 6.47803C6.05078 7.18181 6.62265 7.75245 7.32794 7.75245C7.60617 7.75245 7.86361 7.6637 8.07323 7.51296L7.81847 7.07165Z" fill="white"/>
</svg>
